<?xml version="1.0" encoding="utf-8"?>
<!-- Generator: Adobe Illustrator 25.0.1, SVG Export Plug-In . SVG Version: 6.00 Build 0)  -->
<svg version="1.0" id="Layer_1" xmlns="http://www.w3.org/2000/svg" xmlns:xlink="http://www.w3.org/1999/xlink" x="0px" y="0px"
	 viewBox="0 0 890.7 647.7" style="enable-background:new 0 0 890.7 647.7;" xml:space="preserve">
<path d="M383,238c-0.8,0-1.7,0.1-2.5,0.3c-12.5,2.9-24.8,6.6-36.9,10.9c-9.1,3.1-17.7,7.3-25.8,12.5c-3.2,2.2-6.4,4.5-9.3,7.1
	c-0.8,0.5-1.4,1.3-1.7,2.2c1,5.8,6.5,9,11.3,11.4c7.9,3.6,16.7,5.7,25.4,4.7c-2.6-2.2-6.2-2.5-8.9-4.5c-1.1-0.8-1.1-2.3-1.4-3.5
	c-2.7,0.5-5.2,1.5-7.8,2.2c2.4-1.5,5.1-2.6,7.6-3.9c13.5-5.8,28.1-8.3,42.6-10.3c10.1-1.1,20.4-1.5,30.2-4.5c-0.8-2.2-1.2-5.4-4-5.8
	c-6.1-3.2-9-9.7-12.5-15.3C387.9,239.4,385.6,238,383,238z"/>
<path d="M508,238c-2-0.1-3.9,0.6-5.2,2c-2,2-3.1,4.7-4.6,7c-2.1,3.8-5,7.1-8.6,9.5c-0.9,0.6-2.4,0.5-2.9,1.6
	c-0.8,1.4-1.4,2.9-1.7,4.5c9.8,2.9,20,3.2,30.1,4.5c16,2,32.1,4.9,46.7,12.1c1.2,0.7,2.5,1.3,3.7,2c-2.6-0.7-5.2-1.5-7.9-2.3
	c-0.4,1.3-0.5,3-1.8,3.8c-2.7,1.8-6.2,2.1-8.6,4.4c4.1,0.5,8.3,0.3,12.4-0.6c8-1.5,16.1-4.5,21.9-10.4h0.1c1.2-1.7,2-3.8,2.2-5.9
	c-9.3-8.6-20.6-15-32.4-19.5c-13.3-5-27-9.2-40.8-12.4C509.8,238.1,508.9,238,508,238L508,238z"/>
<path d="M445.3,194c-0.6,0-1.2,0.5-1.2,1.1c0,0,0,0,0,0c-2.3,7.6-4.3,15.4-8.7,22.1c-1.6,2.5-3.8,4.5-6.4,5.9
	c-6.1,3.5-13,5.5-19.7,7.5c-1,0.3-2,0.9-2.7,1.7c0.7,0.7,1.6,1.2,2.6,1.6c7.2,2.3,14.7,4.3,21.1,8.4c3.8,2.4,6.1,6.4,7.9,10.4h0
	c2.2,5.6,4.2,11.2,5.8,17c0.5,1.6,2.5,0.7,2.5-0.7c1.5-5.5,3.3-10.9,5.4-16.2l-0.1-0.4l0.4-0.1c1.1-2.2,2.3-4.2,3.7-6.2
	c1.9-2.6,4.6-4.2,7.4-5.7l3-1.4c4.8-2,9.8-3.5,14.7-5c1-0.4,2.6-0.7,2.3-2.1c-0.9-0.7-2-1.2-3.1-1.5c-6.5-2-13.1-4-19.1-7.4
	c-2.6-1.4-4.7-3.5-6.3-6c-4.2-6.7-6.3-14.4-8.5-21.8C446.5,194.4,446,194,445.3,194L445.3,194z"/>
<path d="M153.1,243.7c-4.6,0-9.2,0.4-13.7,1.3c-15.6,3.1-29.8,12.5-39.5,25c-5.4,7-9.5,14.9-12.2,23.3c-4.3,13.4-4.9,27.7-1.7,41.5
	c0.8,3.6,1.9,7,3.1,10.5h0.1c1.9,5.1,4.3,9.9,7.3,14.4c0.4,0.4,0.7,1.4,1.4,1.4l-0.3,0.1c4,5.8,8.8,11,14.3,15.4h0.2
	c5.1,4.2,10.9,7.5,17.1,9.9c8.8,3.4,18.2,4.9,27.6,4.3c15.2-0.6,30.8-3.5,43.9-11.5c4-2.2,7.7-5,10.8-8.3c0-3.2,0-6.5,0-9.7
	c0-5.1,0.1-10.2,0-15.2c0.2-3.3-0.3-6.8,1-9.9l-0.1,0.1c1.3-2.6,3.5-4.7,6.1-6c2.4-1.3,5.4-1.3,7.5-3.1c0-0.4-0.1-1.1-0.1-1.4
	c-1.8-0.2-3.5-0.2-5.3-0.1c-21.5,0-43,0-64.4,0c-1.3-0.3-2.9,0.9-1.9,2.2c1.5,1.5,3.8,1.7,5.8,2.3c5.8,1.2,11.4,3.9,15.1,8.7
	c1.2,2.2,2.3,4.5,2.3,7.1c0.1,7.6-0.1,15.1,0,22.7c-0.3,3.9-0.3,7.9-2,11.5c-3,3.3-8,1.9-12,2.1c-6.9-1-13.3-4.1-18.5-8.7
	c-4.7-4.3-8.6-9.4-11.6-15c-2.7-5.1-4.8-10.5-6.2-16.1c-0.8-3.2-1.4-6.5-2-9.8c-0.7-5.9-1-11.8-0.8-17.7c0.4-7.4,1.7-14.8,3.7-21.9
	h0.1c2.3-7.8,6-15.2,10.8-21.7c3.1-3.9,6.7-7.4,10.8-10.2c6.9-4.8,15.5-6.5,23.8-4.6c8.8,2,16.1,8,21.5,15c3.5,4.7,6.4,9.9,8.5,15.4
	c1,2.5,1.9,5.1,2.6,7.7c0.5,1.6,0.7,3.4,2,4.6c2.2-4,1.7-8.8,2.2-13.2c0.2-4.4,0.4-8.9,0.4-13.3c-0.2-4.5,0.1-9.1-1.4-13.4
	c-8,0.2-15.6-2.7-22.6-6.5C176.5,246.8,164.9,243.8,153.1,243.7L153.1,243.7z"/>
<path d="M220.5,290c-0.4,0-0.7,0-1.1,0c2.9,2.8,6.7,4.8,8.6,8.4c2.8,5.2,2.8,11.3,2.7,17.1c0.1,4.9,0,9.8,0,14.7
	c0,5.3,0,10.5,0,15.8c2.7-2.7,5.6-5.1,8.7-7.4c4.3-3.1,8.9-5.7,13.6-8c0-4.8,0-9.6,0-14.4c0.1-2.8-0.1-5.5,0.1-8.2
	c0.4-2.6,2.8-4.5,5.4-4.3c5.4,0,10.7,0,16.1,0c4.5,0.3,8.7,2,12,5c4,3.9,7,8.8,8.7,14.1l0.7-0.8c0.6-4.5-0.1-9.1-0.8-13.5
	c-0.9-4.2-2.1-8.4-3.6-12.5c-15.6,0-31.2,0.2-46.7-1.6c-7.1-1-14.2-2.5-21.2-4C222.7,290.2,221.6,290,220.5,290L220.5,290z"/>
<path d="M280.7,327.6c-1.6,0-3.2,0.2-4.7,0.3c-15.6,2.1-30.4,8.4-42.6,18.4c-4.1,3.6-7.8,7.6-11,12c-2.7,3.8-5,7.8-6.9,12
	c4.5-3,9.2-5.7,14-8.1c0.4-0.2,0.8-0.4,1.2-0.5v2.3c0.2,3.9-0.4,7.9-1.9,11.5l0.2,0.4l-0.5,0.2c-2.8,5.5-7.7,9.4-12.2,13.4
	c3.4,0.1,6.7-1,10.1-1.6c8.9-1.8,18-2.7,27.1-2.5c14,0,28.1,0,42.1,0c1.7-4.6,3.1-9.2,4.1-14c0.7-3.7,1-7.5,1-11.2
	c-0.1-1,0-2.4-1.1-2.7c-1.7,5.1-4.6,9.7-8.3,13.5c-3.9,3.9-9.2,6.2-14.7,6.4c-6.2,0-12.5,0-18.7,0c-1.5,0.1-2.8-0.9-3.9-1.8
	c-0.6-1.1-1-2.4-1-3.7c0-3.4,0-6.7,0-10c0-2.9,0-5.7,0-8.5l3-0.8c2.2-0.5,4.3-0.9,6.5-1.4c11.3-1.9,22.7-2.9,34.1-2.9
	c0.7,0,1.3-0.2,2-0.3c-0.7-1.9-1.9-3.6-3.6-4.8c-2.1-1.2-4.5-1.7-6.5-3c-3.1-2.7-2.6-7.3-1.9-10.9
	C284.8,328,282.8,327.5,280.7,327.6L280.7,327.6z"/>
<path d="M381.4,295.9c-6.6,0-13.2,0-19.8,0.1c-1,2,1.8,2.4,3,3.2c4.7,2.1,6,7.8,5.5,12.5c0,2.9,0,5.9,0,8.8c0,7.9,0,15.9,0,23.8
	c0,2.4,0,4.7,0,7.1l-3-3.8c-3.8-5-7.8-9.9-11.6-14.9c-2.4-3-4.8-6.1-7.1-9.1c-2.2-2.8-4.4-5.6-6.6-8.4c-5-6.4-10-12.8-15-19.2
	c-8,0-15.9-0.1-23.9,0.1v1.5c2,1.6,4.8,2,6.2,4.2c3.1,3.9,2.1,9.1,2.3,13.7c0,4.1-0.1,8.2,0,12.3c0,3.7,0,7.4,0,11s0,7.2,0,10.8
	c0,5.2,0,10.5,0,15.7c-0.1,3.9,0.5,7.8-0.7,11.6c-0.7,1.5-1.6,2.9-2.8,4c-1.4,1.2-3.1,1.6-4.6,2.6c-0.7,0.4-0.4,1.3-0.4,1.9
	c13.2-0.1,26.4,0.1,39.6-0.1c0.4-2.1-1.9-2.5-3.3-3.3c-2.5-1.1-4.1-3.6-5-6.1c-0.8-4.4-0.2-8.8-0.5-13.2c0-4.5,0-8.9,0-13.3
	c0-2.9,0-5.7,0-8.6c0-2.4,0-4.8,0-7.2c0-3.3,0-6.5,0-9.8l-0.1-1.3l0.3-0.2c1.3,1.9,2.8,3.7,4.2,5.5c1.6,2.1,3.2,4.2,4.9,6.2
	c3,3.9,6,7.7,9,11.6c2.5,3.3,5.1,6.5,7.6,9.8c3.9,4.9,7.6,9.9,11.6,14.7c3.2,4.3,6.6,8.5,9.9,12.8c1.9,2.4,3.9,4.6,6.1,6.6
	c3.4,3,7.6,4.9,12.2,5.4c-0.6-2.2-2.2-3.9-3.1-5.9l-0.4-0.2l0.2-0.3c-0.8-2.8-2-5.5-2.5-8.4c-0.4-2.5-0.8-5.1-0.9-7.6
	c-0.3-5.1-0.1-10.2-0.2-15.3c0-5.7,0-11.3,0-17c0.1-5.3,0-26.8,0-30.2c-0.2-4.1,1.3-8.8,5.3-10.7c1.4-0.8,3.8-1.2,3.5-3.3
	C394.6,295.9,388,295.9,381.4,295.9L381.4,295.9z"/>
<path d="M442.1,276.8c-1.8,0-3.7,0.2-5.5,0.5c-9.2,1.2-17.5,6.1-22.9,13.5c-1.9,2.8-3.4,6-4.2,9.3v0.1c-1.6,6.4-0.8,13.2,1.4,19.3
	h0.1c1.6,4.2,3.9,8,7,11.2h0.1c3.8,3.8,8.4,6.8,12.9,9.8c9.2,6.6,18.8,12.6,27.8,19.5c2.5,2.3,4.2,5.4,4.8,8.7
	c0.1,2.9-0.3,5.9-1.4,8.6c-1.5,3.3-4.1,5.9-7.4,7.4c-3.8,1.9-8,1.7-12.1,1.2c-1.9-0.3-3.8-0.7-5.7-1.2c-3.7-1.2-7.2-2.9-10.4-5
	c-1.1-0.9-2.2-1.7-3.3-2.6l-1.5-1.3c-1-1-2-2-2.9-3.1c-2-2.3-3.9-4.8-5.5-7.4c-2.7-3.9-4.4-8.5-7.3-12.2c-1.1,4-1.1,8.1-1.1,12.2
	c0,1.2,0,2.5,0.1,3.7c0.2,3.7,0.7,7.4,1.5,11c1.1,4.5,2.9,9.1,6.1,12.5c4.8-2.9,10.9-2.5,16-0.7c8.4,2.6,17.3,3.4,26,2.4
	c4-0.4,8-1.4,11.8-2.8c5.2-2.1,9.7-5.7,13-10.3c2.9-4.3,4.7-9.3,5.3-14.4l0.1,0c0.3-2.8,0.5-5.7,0.5-8.5c-0.1-6.1-1.8-12-4.9-17.2
	c-2-3.1-4.4-5.9-7.1-8.4c-6.5-5.4-13.6-9.9-20.6-14.8c-6.3-4.3-12.7-8.5-18.8-13c-3.7-3-6.3-7.5-5.4-12.4c0.5-2.7,2-5.2,4.3-6.9
	c4.1-2.8,9.3-2.9,14.1-2.4c6.1,0.7,11.7,3.7,15.6,8.4h0.1c2.5,3,3.9,6.8,6.2,9.9c4.5,3.2,9.1,6.5,14.5,8c0.1-2.7-1-5.2-1.9-7.7
	c-1.4-3.6-2.9-7.3-4.5-10.9c-2-4.1-4.3-8.2-6.9-12c-3.6,1.8-7.7,1-11.5,0.1C453.1,277.7,447.7,276.9,442.1,276.8z"/>
<path d="M528.3,295.9c-13.2,0.1-26.4-0.1-39.6,0.1c-0.1,2.4,2.8,2.5,4.3,3.7c3.9,2.4,4.8,7.5,4.5,11.7c0,3.5-0.1,7.1,0.1,10.6
	l0.1,0.4c-0.2,1.4-0.2,2.8-0.1,4.2c0,5.5,0,10.9,0,16.4c-0.1,2.2,0,4.4,0.2,6.6l0-0.4c0.1,0.3,0.2,0.9,0.3,1.1
	c-0.1,0.1-0.2,0.4-0.4,0.5c-0.2,4.4,0,8.9-0.1,13.3c0,3.2,0,6.5,0,9.7c-0.3,3.3-1.1,6.4-2.4,9.4l0.1,0.4l-0.4,0.1
	c-2.4,4.3-5.9,7.7-9.4,11c10.9,0.3,20.3-6.5,30.8-8.5c4-0.7,8.1-1.1,12.1-1.1c0.7-2-1.8-2.5-3.1-3.3c-3.5-1.5-5.3-5.4-5.5-9
	c0-3.2,0.1-6.4,0-9.6s0.1-6.3,0-9.4c0-2.8,2.3-5.2,5.1-5.2c9.1,0,18.1-0.1,27.2,0.1c0.7,0.4,1.5,0.8,2.3,1c1.1,1.5,1.8,3.3,2,5.1
	l-0.4,0.4c0.1,0.3,0.2,0.8,0.3,1.1c-0.3,1.5-0.3,3-0.2,4.6c0,3.9-0.1,7.8,0,11.8c-0.2,3.7-1.9,7.6-5.4,9.2c-1.4,0.8-3.8,1.2-3.4,3.3
	c13.2,0,26.4,0.1,39.6,0c0.8-1.9-1.7-2.4-2.9-3.1c-3.5-1.4-5.3-5.2-5.7-8.7c0-3.1,0.1-6.2,0-9.3c0.1-4.7,0.1-9.5,0-14.2
	c0.2-5.4,0.1-10.7,0-16.1c0.2-7.3,0-14.5,0.1-21.8c0-2.9-0.2-6,1.3-8.7c1.1-2.1,2.9-3.8,5.2-4.6c1-0.5,3-1.2,2-2.7
	c-13.2-0.1-26.4-0.1-39.6,0c-0.3,2.1,2.1,2.5,3.5,3.3c3.4,1.6,4.9,5.3,5.3,8.8c-0.1,6.7,0,13.5-0.1,20.2c-0.1,1.6-0.8,3.1-2,4.2
	c-1,0.5-2.2,0.9-3.3,0.9h-25.2c-2.1,0.1-4.2-1-5.3-2.8c-0.7-3.8-0.2-7.6-0.4-11.4c0-1.3,0-2.6,0-4c0-1.1,0-2.1,0-3.2
	c-0.4-4.6,0.5-10.3,5-12.6C526.2,298.5,529.1,298.2,528.3,295.9L528.3,295.9z"/>
<path d="M603,327.6c-1.1,0-2.2,0.1-3.3,0.2c-1.1,0.2-2.2,0.6-3.1,1.2c0.6,3.1,1.1,6.6-0.6,9.4c-0.7,1.2-2,1.8-2.9,2.8
	c-3.3,0.3-6.2,2.2-7.9,5c-0.5,0.5-0.8,1.9,0.3,1.8c9.2,0,18.3,0.6,27.4,1.8c0-1.2,0-2.5,0-3.7c0-2.1,0-4.2,0-6.3c0-3.7,0-7.3,0-11
	C609.6,328.1,606.3,327.7,603,327.6z"/>
<path d="M641.6,340.4c0,5.6,0,11.2,0,16.8l0.2-0.4c9,3.6,17.7,8,25.8,13.3c-2.9-6.4-6.7-12.3-11.4-17.6
	C652,347.9,647.1,343.8,641.6,340.4L641.6,340.4z"/>
<path d="M614.3,295.9c-4.4,0-8.8,0.1-13.3,0.2c0,0.3,0.1,0.9,0.1,1.2c3.5,1.9,7.8,1.8,10.8,4.6c2.9,2.2,3.8,6,3.4,9.5
	c0.1,9.7,0,19.3,0,29c0,5.5-0.1,11,0,16.5c-0.1,2.2,0,4.5,0,6.7c0,3.5,0.1,6.9-0.1,10.4c-1.3,4.8-6,7.5-10.6,8.4
	c-1.5,0.5-4,0.5-3.9,2.6c1.6,0.2,3.2,0.2,4.8,0.1h1.7c14.6,0.2,29.2,0,43.9,0.1c0.9,0,2.9,0.3,2.5-1.3c-1.8-1.4-4.2-1.5-6.3-2.3
	c-3-0.9-5.7-2.9-7.3-5.6l-0.5-0.1l0.2-0.5c-0.7-2.8-0.5-5.6-0.5-8.5c0-4.7,0-9.4,0-14.1c0-6.1,0-12.3,0-18.4c0-6.9,0-13.8,0-20.6
	c0.2-3.1-0.6-6.5,1.2-9.2c2-3.4,5.8-5.1,9.5-5.9c1.5-0.5,3.9-0.5,4-2.6c-5.8-0.5-11.7-0.1-17.5-0.2c-7.4,0.1-14.8,0-22.1,0
	L614.3,295.9z"/>
<path d="M806.6,251.8c-5.5,0.6-10.9,2.3-16.4,3.4c-14.9,3.3-29.9,6.6-44.8,10c-0.9,0-2.4,1.2-1.2,1.9c3.5,1.3,7.6,1.6,10.3,4.6
	c3.6,3.3,4,8.5,3.8,13.1c-0.1,4.3-0.1,8.6,0,13c-0.1,6.9-0.1,13.7,0,20.6c-0.2,4.2,0,8.4,0,12.7c-6.5-5.5-13-11-19.6-16.4
	c-6.7-5.7-13.5-11.4-20.3-17c-8.2-6.9-16.4-13.8-24.6-20.7c-8.8,1.3-17.5,2.6-26.3,3.9c-1.4,0.4-4.2-0.2-4,2c2.2,2,5.6,1.4,8.2,2.9
	c4.5,2,6.8,7,6.4,11.7c-0.1,6.6-0.1,13.3,0,19.9c0,5.6-0.1,11.2,0,16.9c0,5.2,0,10.3,0,15.5c0,4.5,0,9.1,0,13.6
	c0.2,3.6,0,7.3-1.7,10.6c-1.8,3.4-4.6,6.1-8.1,7.7c-1.5,0.9-3.3,1.3-4.6,2.5c-0.6,1.6,1.5,1.4,2.4,1.4c3.9-0.1,7.8,0.1,11.8-0.1h0.4
	c10.3,0.2,20.7,0,31,0.1c5.6-0.1,11.3,0.2,16.9-0.2c1-1.2-0.7-2-1.6-2.4c-3.3-1.5-6.7-3.2-9-6.1c-2.7-3.5-4-7.8-3.6-12.2
	c0-3.5,0-7,0-10.5c0-6.2,0-12.4,0-18.6c0-5.2,0-10.4,0-15.6c0-3.4,0-6.8,0-10.2c2.8,2.3,5.6,4.7,8.4,7c4.4,3.8,8.9,7.5,13.3,11.2
	c8.1,6.9,16.4,13.7,24.5,20.6c0,0.4,0,1.3,0,1.8c0.1,5,0.8,10,2.2,14.9c0.8,3,2,6,3.4,8.8c1.6,3.3,3.7,6.4,6.1,9.1
	c5,5.9,11.3,10.5,18.4,13.4c1.2,0.5,3.1,1,3.7-0.6c0.5-6.4,0.2-12.9,0.2-19.4c0.2-7.2,0-14.4,0-21.5c0-7.8,0.2-15.6-0.1-23.4
	c0.3-9.1,0.1-18.2,0.1-27.3c0.1-10.4,0-20.7,0.1-31.1c0.3-7.4,5.2-13.9,11.4-17.7C804.8,254.4,807.1,253.7,806.6,251.8L806.6,251.8z
	"/>
<path d="M254.1,414.3c-8.8,0.1-17.7,0-26.5,0.1c0.1,1.6,2.1,1.5,3.2,2.1c2.7,0.8,5.1,3.2,5,6.2c0,7.5,0,15.1,0,22.6
	c0.1,3-2.3,5.5-5,6.3c-1.2,0.5-3,0.5-3.3,2.1c8.9,0.2,17.7,0,26.6,0.1c1.1-0.1,2.5,0.4,3.2-0.8c-1.4-0.7-2.8-1.2-4.3-1.7
	c-2.5-0.9-4.2-3.3-4.2-6c0-7.1,0-14.2,0-21.3c-0.2-2,0.4-4,1.7-5.5c1.8-2,4.6-2.1,6.8-3.5C256.6,413.9,255.3,414.3,254.1,414.3
	L254.1,414.3z"/>
<path d="M309.2,414.2c-6.8,0.3-13.5,0-20.2,0.2l0.2,1c2.8,1.1,5.9,2.7,6.2,6c0.2,7.9,0.1,15.9,0.1,23.8c-0.1,2.9-2,5.4-4.8,6.2
	c-1.3,0.5-3,0.6-3.6,2c4.5,0.5,9.1,0.1,13.6,0.2c1.3-0.1,2.9,0.4,3.9-0.6c-1.5-1.2-3.4-1.9-4.3-3.6c-0.8-1.7-1.2-3.6-1-5.5
	c0-7,0-14,0-21c1.5,2.8,2.4,5.9,4.1,8.5l-0.2,0.6l0.8,1.1c2.9,6.9,6.1,13.7,9.1,20.6c1.9-0.9,2.9-2.8,3.8-4.7
	c3.8-8.5,7.6-16.9,11.4-25.4c0,6.9,0,13.9,0,20.8c0,2.2-0.4,4.6-2,6.2c-1,1-2.9,1.2-3.1,2.8c7.8,0.1,15.5,0,23.3,0.1
	c1.1-0.2,2.6,0.4,3.3-0.8c-2-1.2-4.4-1.3-6.2-2.9c-1.4-1.2-2.3-2.9-2.3-4.8c0-7.5,0-15.1,0-22.6c-0.1-2.7,1.5-5.1,3.9-6.1
	c1-0.5,2.6-0.7,2.8-2.1c-6.6-0.1-13.1,0-19.7-0.1c-3.2,7-6.3,14.1-9.5,21.2C315.4,428.3,312.4,421.1,309.2,414.2L309.2,414.2z"/>
<path d="M383.5,414.3c-0.9-0.1-1.8,0.1-2.6,0.5c1.1,0.8,2.3,1.4,3.5,1.9c2.2,1.1,3.5,3.4,3.5,5.9c0,7.5,0,15,0,22.6
	c0.1,2.9-2.2,5.5-4.9,6.2c-1.2,0.6-3.2,0.5-3.4,2.1c9.9,0.1,19.7,0.1,29.6,0c-0.1-1.5-1.7-1.5-2.8-2c-2.6-0.7-5.1-2.7-5.4-5.5
	c-0.2-2.6,0-5.3-0.1-8c4.4,0,8.9,0.2,13-1.5c3.6-1.4,7.1-3.9,8.5-7.6c1.1-3.3,0.2-6.9-2.3-9.2c-3.7-3.8-9.2-5.4-14.4-5.5
	c-7.1,0-14.2,0-21.3,0L383.5,414.3z M400.9,417c3.8,0.3,7.1,2.9,8.1,6.5c1,3.5-0.1,7.2-2.8,9.6c-0.8,0.4-1.5,0.9-2.2,1.4
	c-1,0.3-2,0.6-3,0.7C401,429.2,401,423.1,400.9,417L400.9,417z"/>
<path d="M473.9,413.3c0.6,1.3,1.2,2.6,1.7,4c-1.5,3.3-3,6.6-4.4,9.9c-0.3,0.6-0.6,1.2-0.9,1.9c-2.8,6.1-5.4,12.3-8.2,18.4
	c-0.8,1.9-2.3,3.3-4.3,3.9c-1.2,0.6-3,0.5-3.4,2.1c4.8,0.2,9.6,0,14.4,0.1c1.1-0.1,2.5,0.4,3.3-0.8c-1.9-1.3-5.3-1.1-5.8-3.8
	c0.1-3,2-5.6,3.1-8.4c5.5,0.1,11.1,0,16.7,0c1,2.4,2.2,4.6,2.9,7c0.5,1.5-0.3,3-1.8,3.5c0,0,0,0,0,0c-1.3,0.7-3.4,0.5-3.8,2.3
	c8.8,0,17.5,0.1,26.3-0.1c-0.4-1.6-2.2-1.5-3.4-2.1c-2.1-0.7-3.7-2.4-4.5-4.5c-5-11.2-10-22.4-15-33.6
	C482.5,413.3,478.2,413.3,473.9,413.3L473.9,413.3z M477.7,421.9c2.2,5,4.4,10,6.6,14.9H471C473.2,431.9,475.4,426.9,477.7,421.9z"
	/>
<path d="M564.2,414.3c-4.5-0.1-8.8,1.1-12.7,3.3c-5.1,2.9-9.1,8.1-9.8,14c-0.4,3.3,0.1,6.6,1.4,9.7l0.6,0.9
	c3.5,6.9,11.1,10.9,18.6,11.4c6.5,0.4,13.8-1.1,18.3-6.2c1.6-1.9,3.3-4.1,3.2-6.8c-1.6,1.6-2.5,3.7-4.4,5c-5.4,4.5-14.1,3.9-19.1-1
	c-6.7-6.4-5.8-18.8,1.7-24.1c5-3.3,11.5-2.6,15.8,1.5c1.9,1.7,2.9,4.1,4.4,6.1c0.5-3.8,0.4-7.7-0.4-11.5c-1.5,0.1-3,0.5-4.6,0.6
	c-1.8-0.4-3.4-1.2-5.2-1.7C569.5,414.7,566.9,414.3,564.2,414.3z"/>
<path d="M618.7,414.3c0,4,0,7.9,0,11.9c0.8,0.1,1.5,0,1.7-0.9c0.8-1.8,1.5-3.9,3.4-5c3.1-2.2,7.1-1.4,10.6-1.5c0,8.8,0,17.7,0,26.5
	c0.1,3-2.3,5.5-5.1,6.3c-1.1,0.5-2.9,0.5-3.2,2c9.9,0.1,19.9,0.3,29.8-0.1c-1.3-2.1-4.5-1.6-6.2-3.4c-3.8-3.1-1.7-8.4-2.4-12.6
	c0-0.3,0-0.9,0-1.2c0.3-5.8,0-11.7,0.1-17.5c3.8,0.1,8.3-0.8,11.3,2.2c1.9,1.4,1.7,4.5,3.9,5.6c0.8-4,0.2-8.2,0.3-12.2
	C648.3,414.3,633.5,414.3,618.7,414.3z"/>
</svg>
