<?xml version="1.0" encoding="UTF-8" standalone="no"?>

<svg viewBox="0 0 48 48" xmlns="http://www.w3.org/2000/svg" 
stroke="currentColor"
      strokeWidth="3"
      strokeLinecap="round"
      strokeLinejoin="round">

      <rect x="5" y="5" width="38" height="38" rx="2" fill="#fff" />
<svg
   xmlns:dc="http://purl.org/dc/elements/1.1/"
   xmlns:cc="http://creativecommons.org/ns#"
   xmlns:rdf="http://www.w3.org/1999/02/22-rdf-syntax-ns#"
   xmlns:svg="http://www.w3.org/2000/svg"
   xmlns="http://www.w3.org/2000/svg"
   xmlns:sodipodi="http://sodipodi.sourceforge.net/DTD/sodipodi-0.dtd"
   xmlns:inkscape="http://www.inkscape.org/namespaces/inkscape"
   inkscape:version="1.0 (4035a4fb49, 2020-05-01)"
   sodipodi:docname="Research Commission.svg"
   viewBox="0 0 640 693.33331"
   x="8" y="8" width="32px" height="32px"
   id="svg2"
   version="1.1">
  <metadata
     id="metadata8">
    <rdf:RDF>
      <cc:Work
         rdf:about="">
        <dc:format>image/svg+xml</dc:format>
        <dc:type
           rdf:resource="http://purl.org/dc/dcmitype/StillImage" />
        <dc:title></dc:title>
      </cc:Work>
    </rdf:RDF>
  </metadata>
  <defs
     id="defs6" />
  <sodipodi:namedview
     inkscape:current-layer="g10"
     inkscape:window-maximized="1"
     inkscape:window-y="-8"
     inkscape:window-x="-8"
     inkscape:cy="298.47101"
     inkscape:cx="281.07796"
     inkscape:zoom="0.77596156"
     showgrid="false"
     id="namedview4"
     inkscape:window-height="705"
     inkscape:window-width="1366"
     inkscape:pageshadow="2"
     inkscape:pageopacity="0"
     guidetolerance="10"
     gridtolerance="10"
     objecttolerance="10"
     borderopacity="1"
     bordercolor="#666666"
     pagecolor="#ffffff" />
  <g
     id="g10"
     inkscape:label="Image"
     inkscape:groupmode="layer">
    <path
       id="path837"
       d="M 248,7.9999997 V 9.333333 c 33.08667,0.021973 47.69067,24.788533 45.33333,54.666665 -9.932,-9.8492 -21.67866,-19.909866 -36,-22.231466 -15.27866,-2.476667 -23.91066,8.223866 -18.66666,22.231466 12.888,-18.234533 28.64266,-5.656267 34.66666,11.999999 -24.548,0 -30.85866,16.0796 -20,37.333333 h 1.33334 c 0.20533,-9.66333 8.82,-29.248266 21.03333,-18.2428 11.86933,10.69427 5.90533,39.78547 25.63867,44.27747 4.72,1.07466 9.99733,-1.34934 14.66133,-2.03467 C 309.19067,129.46173 299.72667,123.36453 298.952,112 296.60267,77.546931 337.24,29.091199 290.66667,7.1028664 284.82,4.3424532 278.452,2.8462666 272,2.6861999 263.01867,2.4632933 255.87867,3.5215599 248,7.9999997 M 246.66667,142.66666 V 144 c 9.624,1.992 17.43333,7.85733 26.66666,10.10933 11.72,2.85733 27.14134,0.73066 38.66667,-2.10934 l -10.66667,29.33334 c -4.99866,-4.368 -14.48266,-16.78 -21.32666,-16.872 -4.464,-0.0613 -7.576,4.95866 -5.67067,8.852 3.104,6.35066 12.14,11.82533 17.664,16.02 -10.15467,3.436 -22.04133,11.44133 -32.768,12.00933 -25.04933,1.32533 -49.36267,-26.45067 -51.232,-49.34267 16.152,3.97867 43.02933,15.07067 53.33333,-1.33333 l -9.33333,4 V 148 c -4.37467,1.18266 -7.784,2.61066 -10.66667,-1.33334 L 230.66667,148 v -5.33334 c -8.74934,2.52934 -12.73334,-4.232 -20,-8 v -1.33333 C 220.66,130.76 226.716,135.992 236,138.66666 l -4,-5.33333 13.33333,5.33333 L 242.66667,132 c 5.91333,2.01333 15.08,9.00266 21.28,8.008 7.13866,-1.144 12.53466,-14.04 14.72,-20.008 -25.91467,0 -53.376,-0.17334 -78.66667,-6.5268 -12.64267,-3.17587 -27.36667,-15.466403 -40,-15.576003 -5.288,-0.046 -11.02667,3.148263 -16,4.769463 V 104 c 16.37467,7.64533 29.14,11.10106 26.66667,30.66666 -17.336,-10.1184 -39.80307,-28.12 -56,-10.66666 16.30226,9.51466 44.04266,15.82933 56.64933,29.85333 3.64267,4.052 4.14533,10.51733 6.01733,15.48 l -66.66666,-32 c 5.6264,19.48533 27.58533,29.70266 44,39.04133 26.948,15.32933 54.48,31.80533 72,58.292 -10.07067,3.81867 -25.244,22.34533 -36,20.64666 -12.032,-1.90133 -42.36667,-25.83466 -19.94134,-35.50266 9.97734,-4.30133 29.75067,1.81067 32.272,13.52267 1.32,6.12533 -6.81733,11.67866 -12,8.13066 -9.30533,-6.37066 4.67467,-7.736 9.00267,-6.79733 -4.85067,-8.30933 -18.72933,-8.65467 -20.61067,2.66667 -1.14133,6.87466 8.90667,14.43866 15.27734,13.68666 8.19733,-0.96667 17.336,-10.48666 24,-15.02 -10.412,-27.06666 -53.46934,-47.11066 -78.66667,-57.89466 -15.55973,-6.66 -29.54387,-14.60934 -38.66667,4.56133 L 128,193.33333 c -12.57173,11.06666 -29.488267,-8.21067 -36,9.33333 l 17.33333,6.66667 c -8.144,7.87466 -13.396663,6.696 -23.999997,6.66666 v 9.33334 C 99.4196,226.41066 88.9628,234.63466 80,234.66666 l 5.106933,74.66666 1.9836,29.21334 28.104937,24.36533 2.13786,14.42133 -1.3704,22.28133 -25.296263,21.71867 c 17.791463,11.08 35.843733,25.86933 35.060663,49.33333 -0.2252,6.748 -4.90746,13.67467 -7.06066,20 -8.7788,-8.77867 -17.28707,-14.90533 -17.33334,-28 L 118.66667,459.99998 57.333333,421.77732 34.787067,408.40799 20,423.99999 v 1.33333 c 19.025333,16.46133 55.070933,28.30133 57.333333,56 H 76 l -13.5792,-19.196 -14.3632,-1.608 L 35.753067,448.28265 8,454.66665 v 1.33333 l 23.309733,3.47067 10.303467,11.70533 13.0524,-0.0333 16.001067,15.524 c -7.067867,-3.148 -32.225734,-16.28667 -39.1348,-11.90533 -3.7848,2.4 -5.102267,9.23066 -6.198534,13.23866 26.408,3.41067 50.070267,16.17067 67.768534,36 9.256533,10.37067 14.846263,23.85467 25.570003,32.89867 15.15346,12.78 38.9748,21.49333 58.66146,23.10133 v 1.33333 c -17.58533,6.408 -33.51066,-5.46666 -50.66666,-8 0,17.32134 -2.39587,26.676 17.33333,29.33334 -0.856,-5.25467 -2.836,-6.924 -8,-8 v -6.66667 c 13.49733,0.58133 17.332,4.00533 17.33333,17.33333 H 164 v -12 c 10.01467,10e-4 36.59333,-1.888 40,9.33334 h -10.66667 c 2.11734,12.68933 22.856,8.86933 25.07067,-2.66667 0.67333,-3.50267 2.572,-8.90133 -1.5,-11.01067 -6.324,-3.276 -16.49867,-0.63866 -23.57067,-2.32266 l 6.66667,-4 c -9.75467,-23.07467 -27.40133,-28.864 -49.33333,-36 0.14666,17.768 8.36533,21.28133 25.33333,22.66666 l -20,-14.66666 c 15.912,2.14266 21.01333,5.23466 26.66667,20 l -34.66667,-8 c -0.512,-6.48267 -0.48133,-15.19467 -3.352,-21.10534 -3.796,-7.81733 -14.60027,-13.92933 -20.59453,-20.22799 -9.0916,-9.55334 -14.67227,-20.91467 -18.72014,-33.33334 h 12 l -2.66666,9.33334 c 9.36466,1.816 20.60533,2.26133 29.33333,6.204 8.71867,3.93733 15.83867,12.52933 24,17.724 14.744,9.38533 31.38533,16.364 48,21.74533 26.35333,8.53333 68.64133,10.06133 88,31.66 -12.84267,-3.04934 -21.63333,3.38 -30.66667,12 v -18.66667 l -18.66666,-1.33333 13.33333,24 c -16.72267,-16.72267 -23.24133,-27.48934 -48,-28 l 42.66667,32 C 236.736,587.87065 216.22,561.23065 188,559.99998 c 14.244,20.22133 37.98133,28.71067 58.66667,40.56933 13.97866,8.01467 25.48933,18.42 38.66666,27.43067 -2.236,-10.83733 -8.18133,-48.396 14.64134,-43.36267 9.05466,1.996 4.468,12.852 14.692,14.02934 0,-12.62667 -3.23334,-30.06934 -14.01867,-38.296 -10.796,-8.236 -31.69733,-10.76267 -44.648,-14.664 -36.456,-10.98133 -80.19733,-22.04933 -103.72133,-55.04533 -20.66774,-28.98934 -18.94534,-66.24933 -18.94534,-99.99467 0,-60.66933 -0.7692,-120.98799 4,-181.33332 -12.618,4.62666 -23.6264,15.07866 -32,25.33333 v 1.33333 C 118.7728,250.21732 116,272.35066 116,290.66666 c 0,6.37733 1.6196,15.48 -1.3704,21.31333 -4.2784,8.348 -16.347333,16.14533 -23.962933,21.35333 0,-47.99066 -1.9012,-132.40266 65.333333,-130.64666 8.52533,0.22267 16.22133,3.472 24,6.64667 v 1.33333 c -9.58533,-1.80667 -22.212,-5.372 -29.796,3.192 -6.95733,7.85467 -3.53733,25.69867 -3.53733,35.47466 v 94.66667 c 0,45.58933 -10.61067,111.70666 24.232,147.87999 25.08133,26.03867 69.91066,35.932 102.43466,49.46934 14.26,5.93466 37.30134,13.29999 43.02934,29.31733 3.408,9.528 0.97066,23.28266 0.97066,33.33333 L 308,602.66665 c 2.236,3.38533 7.02,7.78933 7.27733,11.99866 0.54134,8.844 -18.53333,16.916 -24.61066,21.33467 v 1.33333 c 5.75866,7.464 10.69733,15.504 20,18.66667 -4.26,-8.14 -6.96667,-13.672 1.33333,-20 l 9.33333,45.33333 h 1.33334 L 332,635.99998 c 8.068,6.66933 4.864,11.50666 1.33333,20 9.27334,-3.59334 15.19467,-11.56667 20,-20 l -26.66666,-20 v -1.33333 l 9.33333,-12 -8,1.33333 c 0,-10.03867 -2.44667,-23.81867 0.97067,-33.332 5.76533,-16.04933 30.148,-25.08133 44.36266,-31.58933 38.264,-17.52133 92.21467,-24.424 111.584,-67.07867 C 496.93333,445.53732 496,416.33865 496,387.99999 V 281.33332 237.33333 c 0,-6.60267 1.38667,-15.196 -1.94267,-21.19334 -6.592,-11.87333 -22.264,-6.80266 -32.724,-5.47333 v -1.33333 c 13.192,-3.60134 24.608,-8.17467 38.66667,-6.42 55.624,6.94666 52,89.65066 52,130.41999 -7.09333,-4.93866 -18.564,-12.27866 -22.62933,-20.052 -2.864,-5.476 -1.37067,-13.952 -1.37067,-19.948 0,-17.18266 -4.144,-44.06266 10.66667,-55.99999 -8.06267,-12.88934 -19.36667,-22.184 -33.33334,-28 6.344,27.75466 5.33334,55.66266 5.33334,83.99999 v 109.33333 c 0,28.268 0.20266,62.952 -18.03867,86.66667 -24.26667,31.54666 -60.66533,42.30133 -96.628,53.792 -17.612,5.62666 -35.32933,12.70933 -53.33333,16.87466 l -11.196,21.33333 -0.804,17.33334 c 10.224,-1.17734 5.63733,-12.03334 14.692,-14.02934 23.112,-5.09733 16.73733,32.552 14.64133,43.36267 l 108,-70.66667 v -1.33333 c -34.34533,4.62533 -54.18267,29.69733 -85.33333,42.66667 l 42.66666,-32 c -24.70533,0.204 -31.40533,11.40533 -48,28 l 13.33334,-24 L 372,571.99998 v 18.66667 c -9.03333,-8.62 -17.824,-15.04934 -30.66667,-12 16.944,-18.90534 51.552,-20.74 74.66667,-27.628 17.83467,-5.31334 35.66,-11.81333 52,-20.788 11.17067,-6.13467 19.79333,-16.34 30.66667,-22.26667 8.284,-4.51466 20.15466,-4.87066 29.33333,-6.65066 l -2.66667,-9.33334 H 536 c -9.44133,27.83467 -22.536,51.192 -53.33333,60 v 1.33333 h 22.66666 v 1.33334 l -38.66666,18.66666 16,-13.33333 -4,5.33333 16,-8 v -1.33333 l -22.28667,0.804 -29.71333,21.86267 6.66666,8 -26.66666,4 v 1.33333 l 33.33333,16 -10.66667,-12 33.33334,-4 v 16 l 21.33333,-20 -8,20 c 15.57733,-6.03467 19.15867,-18.76933 22.66667,-33.33333 l -1.33334,-1.33334 c -14.13066,5.79734 -37.136,18.408 -50.66666,5.33334 21.48933,-0.17734 48.68933,-8.40534 63.88,-24.052 12.63066,-13.01067 19.77866,-30.11733 33.45466,-42.38267 16.12934,-14.46666 35.09734,-21.62666 55.99867,-25.56533 -10.40267,-19.884 -44.45467,-7.27333 -56,4 2.568,-29.22133 41.356,-58.648 69.33333,-58.66666 -7.53066,-14.176 -28.496,-17.72667 -42.66666,-12.38134 -11.51467,4.34267 -19.21467,14.844 -28,22.924 -9.924,9.12533 -22.468,17.08933 -34.66667,22.79067 v 1.33333 l 20,1.33333 -20,22.66667 c -1.94533,-5.716 -6.188,-12.02933 -6.49733,-18.10133 -1.2,-23.63334 17.26933,-39.512 34.49733,-51.232 l -23.96267,-21.38533 -1.37066,-22.61467 2.13733,-15.56667 26.772,-23.22399 1.984,-29.20934 5.10667,-74.66666 c -8.96267,-0.032 -19.42,-8.256 -5.33334,-9.33333 v -9.33334 c -10.604,0.0293 -15.856,1.208 -24,-6.66666 l 17.33334,-6.66667 c -6.512,-17.544 -23.428,1.73333 -36,-9.33333 l 26.66666,-10.66667 c -9.12266,-19.17067 -23.10666,-11.22133 -38.66666,-4.56133 -25.136,10.75733 -68.23467,30.92 -78.66667,57.89466 6.492,4.64934 15.86,14.06 24,15.02 6.37067,0.752 16.41867,-6.812 15.27733,-13.68666 -1.88133,-11.32134 -15.76,-10.976 -20.61066,-2.66667 3.292,-0.71333 15.4,-2.53067 10.81333,4.964 -3.86267,6.30933 -13.96533,1.588 -13.96533,-4.96933 0,-13.148 25.63066,-20.448 34.86666,-13.672 6.06534,4.44933 5.616,12.33066 5.61867,19.01066 v 45.33333 c 0,63.364 11.28133,135.556 -17.33333,193.33333 -12.46534,-6.568 -29.90534,-11.38533 -44,-12 v -6.66667 l 38.66666,8 L 456,457.33332 418.66667,450.66665 v -5.33333 l 34.66666,2.66666 c -3.81866,-12.70266 -16.02933,-9.46799 -26.66666,-11.99999 16.08666,-7.62267 33.82933,-16.58534 37.33333,-36 l -14.66667,-4 c -7.52133,22.088 -22.15466,32.46533 -44,38.66666 l 6.42,24 0.30267,13.696 11.944,4.59867 26.66667,9.70533 c -30.27334,25.736 -75.02,37.09733 -109.33334,57.33333 L 360,517.33332 c -4.42,-1.08934 -11.25867,-3.54534 -15.7,-1.80934 -8.23333,3.216 -15.324,28.39734 -17.63333,36.476 h -1.33334 V 367.99999 l 0.43467,-90.66667 16.89867,-50.66666 c 10.576,11.05733 15.85866,28.15466 32,17.33333 l -18.66667,-24 28,-7.552 33.33333,18.21867 c 19.00534,-24.944 46.64667,-40.47867 73.33334,-55.8 C 506.388,165.83999 526.61733,155.97733 532,137.33333 l -66.66667,32 c 1.872,-4.96267 2.37467,-11.428 6.01734,-15.48 C 483.95733,139.82933 511.69733,133.51466 528,124 c -16.19733,-17.4532 -38.664,0.54826 -56,10.66666 l -2.66667,-16 L 498.66667,104 v -1.33334 c -4.97334,-1.6212 -10.712,-4.815463 -16,-4.769463 -12.63334,0.1096 -27.35734,12.400133 -40,15.576003 C 417.40933,119.8184 389.884,120 364,120 c 8.29867,22.66533 17.01733,19.364 36,12 l -2.66667,6.66666 13.33334,-5.33333 -4,5.33333 c 9.284,-2.67466 15.34,-7.90666 25.33333,-5.33333 v 1.33333 c -7.26667,3.768 -11.25067,10.52934 -20,8 V 148 l -10.66667,-1.33334 c -2.88266,3.944 -6.292,2.516 -10.66666,1.33334 v 6.66666 l -9.33334,-4 c 10.78667,16.23733 36.88934,5.384 53.33334,1.33333 -1.92934,23.62667 -26.13467,49.67467 -51.43467,49.272 -10.968,-0.17466 -21.60667,-8.964 -32.56533,-10.60533 l 20,-18.66667 c -8.48667,-16.15333 -19.84534,1.17867 -28,9.33334 L 328,146.66666 c 11.90933,-4.96 22.55333,-11.89333 28.132,-24 3.87467,-8.40826 3.67867,-21.1288 10.83467,-27.57613 12.276,-11.061199 20.616,8.66787 21.03333,18.2428 h 1.33333 c 10.81734,-21.172666 4.448,-37.333333 -20,-37.333333 4.45334,-13.052399 28.236,-35.857065 33.33334,-10.666666 H 404 c 4.26933,-15.191333 -2.672,-26.777199 -20,-23.107999 -13.93333,2.950133 -24.80533,11.995466 -34.66667,21.774666 -2.36266,-29.937999 12.168,-54.6446916 45.33334,-54.666665 -18.872,-18.906906 -56.91734,-0.84668 -64.112,21.333333 -8.736,26.931465 14.30266,54.536798 13.268,81.333334 -0.404,10.49346 -9.04134,18.0508 -17.156,23.52 -12.412,8.36666 -30.21867,13.98933 -45.33334,13 -11.91333,-0.77867 -22.296,-5.85334 -34.66666,-5.85334 m 85.33333,8 v 1.33333 l 36,2.36667 L 396,144 c -11.00933,-4.62 -21.296,2.728 -32,4.01466 -12.17467,1.464 -20.52533,-4.00533 -32,2.652 m -10.66667,-1.33333 16.936,40.77466 35.064,13.892 v 1.33334 c -10.112,2.848 -28.64933,3.57866 -36.64933,10.472 -10.35333,8.92133 -9.94667,36.96933 -15.35067,49.52799 H 320 l -8.836,-35.99999 -6.20267,-14.29467 -34.29466,-11.03867 32.808,-12.68 17.85866,-41.98666 m -18.66666,70.66666 c -0.888,11.772 -16.14134,26.20667 -26.66667,30.66667 -1.988,-2.51067 -6.41733,-5.87067 -6.392,-9.33333 0.0747,-9.96 24.68667,-22.63867 33.05867,-21.33334 m -72,24 2.66666,16 16,2.66667 -13.67733,6.08533 -4.98933,17.91467 -6.13334,-16.58134 -15.2,-6.08533 17.33334,-4 1.33333,-16 h 2.66667 m 106.66666,14.66667 1.33334,16 42.66666,10.66666 v 6.66667 l -38.66666,-8 c 1.184,21.428 33.68,6.23867 38.66666,22.66667 l -34.66666,-2.66667 c 3.588,11.93867 17.28266,10.63733 28,10.66667 v 1.33333 c -18.024,4.27067 -35.252,16.84267 -38.66667,36 19.15867,3.952 15.24133,-7.768 27.068,-19.59867 7.98133,-7.984 19.444,-12.564 30.26533,-15.068 l -4,-38.66666 -52,-20 m 73.33334,18.66666 c 0.63866,14.864 -0.68267,25.70534 -5.33334,40 11.69467,1.72667 23.63334,7.51334 31.876,16.05334 4.37867,4.53733 8.312,18.35866 13.828,20.35066 3.732,1.348 9.16534,-1.17867 12.96267,-1.73733 -3.35733,-18.82133 -20.95333,-31.79333 -38.66667,-36 v -1.33333 c 10.71734,-0.0293 24.412,1.272 28,-10.66667 l -34.66666,2.66667 c 5.008,-16.49867 36.708,-1.26934 38.66666,-22.66667 l -38.66666,8 v -6.66667 c 9.52,-1.28133 35.652,-4.15733 41.29733,-12.55866 2.38,-3.54267 2.17733,-9.95067 2.70267,-14.108 l -52,18.66666 m -125.33334,2.66667 2.66667,16 16,2.66667 c -12.52533,7.65066 -15.29733,6.55733 -17.33333,22.66666 l -7.46667,-15.248 -15.2,-6.08533 17.33333,-4 1.33334,-16 h 2.66666 m -50.66666,20 c -4.768,-1.916 -5.16934,-4.38133 -5.33334,-9.33333 4.916,1.63066 5.17334,4.41066 5.33334,9.33333 m -52,-1.33333 4,17.33333 16,2.66667 -13.67734,6.11866 -4.98933,17.88134 -6.13333,-16.58134 -15.2,-6.08533 17.33333,-4 2.66667,-17.33333 m 52,8 c 1.66266,5.84 1.12,9.58933 -5.33334,10.66666 0.064,-5.31466 0.08,-8.55466 5.33334,-10.66666 m -118.66667,16 v 30.66666 l -20,-13.33333 20,-17.33333 m 120,0 v 10.66666 h -6.66667 c 0.0707,-5.944 0.39467,-9.29733 6.66667,-10.66666 m 146.66667,16 c 2.40266,3.41066 5.03066,6.38133 8.00666,9.32933 7.65867,7.588 25.57734,4.96533 23.932,-9.20533 -0.616,-5.30667 -11.96533,-16.34667 -17.27733,-13.788 -5.58533,2.68933 -10.324,9.32666 -14.66133,13.664 m 146.66666,-14.66667 17.33334,16 -18.66667,12 1.33333,-28 M 288,338.66666 h -5.33333 v -10.66667 c 5.39466,1.79067 5.27066,5.42 5.33333,10.66667 m 74.66667,1.33333 2.704,15.216 11.96266,6.02533 20,14.75867 v 1.33333 c -11.396,6.58 -19.45733,17.44667 -33.33333,18.66667 l -1.33333,17.33333 17.33333,-1.33333 18.66667,-32 H 400 c 7.148,10.45333 17.496,18.69466 18.66667,32 L 436,413.33332 434.66667,395.99999 c -12.564,-1.28667 -24.88534,-11.31734 -32,-21.33334 11.16133,-5.75866 18.61866,-16.63733 32,-17.33333 L 436,339.99999 l -17.33333,1.33333 c -1.15867,12.85733 -11.62534,22.90667 -20,32 l -18.66667,-32 -17.33333,-1.33333 M 236,342.66666 v 10.66666 h -6.66667 l 1.33334,-10.66666 H 236 m 81.33333,0 1.33334,74.66666 C 302.92,396.52799 287.74133,357.65999 317.33333,342.66666 m -26.66666,14.66666 H 284 v -10.66667 c 6.40667,1.06934 6.596,4.75467 6.66667,10.66667 M 188,350.66665 v 12 h -5.33333 v -12 H 188 m 173.33333,9.33334 c -15.75466,15.75466 -15.75466,18.912 0,34.66666 h 1.33334 c 14.81466,-14.81466 17.50933,-21.39333 -1.33334,-34.66666 m 74.66667,0 c -15.75467,15.75466 -15.75467,18.912 0,34.66666 h 1.33333 C 452.148,379.85199 454.84267,373.27332 436,359.99999 m -198.66667,1.33333 v 12 c -8.33866,-1.392 -8.33866,-10.608 0,-12 m -48,8 v 10.66667 h -6.66666 v -10.66667 h 6.66666 m 105.33334,1.33333 20,49.33334 c -16.74534,-10.47467 -50.308,-33.94267 -20,-49.33334 m -57.33334,10.66667 v 12 H 232 v -12 h 5.33333 m -48,5.33333 v 10.66667 H 184 v -10.66667 h 5.33333 m 88,5.33334 34.66667,32 -52,-9.33334 17.33333,-22.66666 m 58.66667,8 c 3.50667,19.66133 20.876,28.66933 37.33333,36 -10.40133,2.476 -24.21733,-1.36134 -26.66666,11.99999 l 34.66666,-2.66666 v 5.33333 c -12.92933,1.02133 -38.27466,1.15467 -38.66666,17.33333 L 380,458.66665 c 0.87733,10.144 -12.42667,10.15333 -20,12.20133 -15.12667,4.092 -21.94533,5.65734 -22.66667,22.46534 l 52,-20 c -1.80533,-14.28 0.15734,-25.24934 5.33334,-38.66667 -21.94267,-6.22933 -36.72934,-16.35733 -44,-38.66666 l -14.66667,4 m 46.66667,13.33333 v 1.33333 c 15.75466,15.75467 18.912,15.75467 34.66666,0 -13.27333,-18.84266 -19.852,-16.148 -34.66666,-1.33333 m -144,-10.66667 v 10.66667 H 232 v -10.66667 h 6.66667 m -49.33334,2.66667 v 9.33333 H 184 c 0.16,-4.92266 0.41733,-7.70266 5.33333,-9.33333 m -72,5.33333 v 18.66667 L 104,418.66665 l 13.33333,-8 m 410.66667,0 10.66667,8 -12,10.66667 L 528,410.66665 m -218.66667,16 v 1.33334 l -66.66666,9.33333 14.78666,-18.57733 15.88,1.24266 36,6.668 m -118.66666,-4 v 9.33334 H 184 v -9.33334 h 6.66667 m 46.66666,1.33334 c -0.0627,5.24666 0.0613,8.876 -5.33333,10.66666 v -10.66666 h 5.33333 m 81.33334,9.33333 v 17.33333 c -29.824,2.35333 -59.092,5.652 -88,13.90267 -15.06,4.29866 -30.10534,13.36933 -45.33334,16.24266 -7.55333,1.42534 -11.868,-6.648 -13.33333,-12.812 47.42933,-19.74666 94.632,-34.66666 146.66667,-34.66666 m -17.33334,4 6.66667,9.33333 h 2.66667 l 6.66666,-10.66666 -16,1.33333 m -110.66666,1.33333 c -0.18534,5.56267 -0.996,8.096 -6.66667,9.33333 v -9.33333 h 6.66667 m 86.66666,1.33334 9.33334,9.33333 5.33333,-10.66667 -14.66667,1.33334 m -26.66666,5.33333 v 1.33333 l 10.66666,6.66667 4,-10.66667 -14.66666,2.66667 m -24,5.33333 v 1.33333 l 10.66666,5.33334 4,-10.66667 -14.66666,4 M 216,453.33332 l -13.33333,5.33333 12,6.66667 1.33333,-12 m 349.33333,26.66666 c 18.08134,-9.512 42.49867,-18.92533 62.66667,-17.33333 -15.31867,-20.616 -53.22933,-0.84667 -62.66667,17.33333 M 318.66667,458.66665 v 21.33333 l -37.33334,2.66667 6.66667,-16 12,9.33333 h -9.33333 l 1.33333,-4 h -1.33333 l -4,6.66667 18.66666,-1.33333 -18.66666,-16 c -6.45467,22.40666 -19.124,25.02666 -40,29.33333 L 252,473.33332 l 12,5.33333 v 1.33333 l -9.33333,-1.33333 -2.66667,6.66667 20,-5.33334 v -1.33333 l -21.33333,-10.66667 c -8.276,21.33734 -14.51734,28.05467 -37.33334,33.33334 l 5.33334,-18.66667 10.66666,5.33333 v 1.33334 l -6.66666,-1.33334 h -1.33334 L 220,494.66665 l 17.33333,-5.33333 -20,-12 -8,22.66666 -20,-10.66666 v -2.66667 c 38.852,-20.712 85.908,-28 129.33334,-28 M 180,467.99998 l 12,5.33334 2.66667,-10.66667 L 180,467.99998 m -101.333333,13.33334 -1.333334,1.33333 1.333334,-1.33333 m 53.333333,0 8,17.33333 -14.66667,-2.66667 L 132,481.33332 m 186.66667,2.66666 v 18.66667 l -33.33334,4 8,-14.66667 L 304,497.33332 v 1.33333 c -4.17733,0.776 -6.97867,2.07867 -8,-2.66667 h -1.33333 L 292,502.66665 l 17.33333,-2.66667 -14.66666,-13.33333 h -1.33334 C 283.17733,504.90798 272.88667,512.91598 252,515.99998 l 8,-18.66666 10.66667,6.66666 -8,-1.33333 -1.33334,6.66667 16,-4 v -1.33334 L 260,493.33332 c 12.87733,-10.55334 42.68,-9.33334 58.66667,-9.33334 m 194.66666,0 4,12 -13.33333,2.66667 6.66667,-14.66667 h 2.66666 m -254.66666,8 c -2.20934,7.668 -6.572,20.86667 -13.33334,25.33334 L 248,511.99998 l -20,-9.33333 -1.33333,5.33333 -8,-4 40,-12 M 232,506.66665 l 9.33333,5.33333 v 1.33334 c -3.81066,-1.056 -9.452,-2.10134 -9.33333,-6.66667 m 86.66667,0 v 44 h -1.33334 c -3.896,-8.328 -8.02266,-30.08933 -16.36666,-34.50933 -4.16,-2.204 -11.14267,0.80933 -15.63334,1.176 l 24,33.33333 L 256,521.33332 c 14.67067,-11.84134 44.372,-14.51467 62.66667,-14.66667 M 116,509.33332 l 6.66667,10.66666 H 124 l 5.33333,-10.66666 H 116 m 396,5.33333 5.33333,10.66667 h 1.33334 l 6.66666,-10.66667 H 512 m -378.66667,14.66667 12,9.33333 1.33334,-10.66667 -13.33334,1.33334 m 361.33334,4 1.33333,10.66666 12,-9.33333 -13.33333,-1.33333 m -189.33334,29.33333 c 1.4,6.416 3.448,10.18 9.33334,13.33333 -0.512,-6.788 -3.37467,-10.20533 -9.33334,-13.33333 m 25.33334,13.33333 C 336.552,572.84665 338.6,569.08265 340,562.66665 c -6.084,2.87066 -8.82667,6.61066 -9.33333,13.33333 M 264,598.66665 l -1.33333,1.33333 z"
       style="fill:#080808;stroke:none;stroke-width:1.33333;fill-opacity:1" />
  </g>
</svg>
</svg>